<?xml version="1.0" encoding="UTF-8" standalone="no"?>
<!-- Generator: Fusion 360, Shaper Origin Export Add-In, Version 1.4.1  -->

<svg
   xmlns:shaper="http://www.shapertools.com/namespaces/shaper"
   xmlns:dc="http://purl.org/dc/elements/1.1/"
   xmlns:cc="http://creativecommons.org/ns#"
   xmlns:rdf="http://www.w3.org/1999/02/22-rdf-syntax-ns#"
   xmlns:svg="http://www.w3.org/2000/svg"
   xmlns="http://www.w3.org/2000/svg"
   xmlns:sodipodi="http://sodipodi.sourceforge.net/DTD/sodipodi-0.dtd"
   xmlns:inkscape="http://www.inkscape.org/namespaces/inkscape"
   enable-background="new 0 0 49.6401871 48.0891892"
   height="52.089188cm"
   shaper:fusionaddin="version:1.4.1"
   version="1.1"
   viewBox="0 0 372.13572 52.089189"
   width="372.13571cm"
   x="0cm"
   xml:space="preserve"
   y="0cm"
   id="svg1025"
   sodipodi:docname="Logo_SchmelingFachwerk_oben.svg"
   inkscape:version="0.92.4 (5da689c313, 2019-01-14)"
   inkscape:export-filename="C:\Users\Cedric\Downloads\SchmelingFachwerkLogo.png"
   inkscape:export-xdpi="96"
   inkscape:export-ydpi="96"><metadata
     id="metadata1031"><rdf:RDF><cc:Work
         rdf:about=""><dc:format>image/svg+xml</dc:format><dc:type
           rdf:resource="http://purl.org/dc/dcmitype/StillImage" /><dc:title></dc:title></cc:Work></rdf:RDF></metadata><defs
     id="defs1029">




</defs><sodipodi:namedview
     pagecolor="#ffffff"
     bordercolor="#666666"
     borderopacity="1"
     objecttolerance="10"
     gridtolerance="10"
     guidetolerance="10"
     inkscape:pageopacity="0"
     inkscape:pageshadow="2"
     inkscape:window-width="1920"
     inkscape:window-height="1017"
     id="namedview1027"
     showgrid="false"
     inkscape:zoom="0.044194174"
     inkscape:cx="7323.7165"
     inkscape:cy="77.79326"
     inkscape:window-x="-8"
     inkscape:window-y="-8"
     inkscape:window-maximized="1"
     inkscape:current-layer="layer2"
     fit-margin-top="2"
     fit-margin-left="5"
     fit-margin-right="5"
     fit-margin-bottom="2"
     units="cm" /><g
     inkscape:groupmode="layer"
     id="layer1"
     inkscape:label="Logo"
     style="display:inline"
     transform="translate(6.2723269,2.0116338)"
     sodipodi:insensitive="true"><g
       transform="translate(-5.8926618,-5.011634)"
       id="g1262"><g
   transform="translate(4.8710648,5.0000002)"
   id="Body_Körper81"
   style="fill:#47290b;fill-opacity:1"><path
     id="path827"
     transform="matrix(1,0,0,-1,24.819093,30.942162)"
     shaper:pathType="exterior"
     shaper:cutDepth="0.001"
     d="m 22.76,-17.147027 v 2.5 h -1.5 v -2.5 z"
     style="vector-effect:non-scaling-stroke;fill:#47290b;fill-opacity:1"
     inkscape:connector-curvature="0" /></g><g
   transform="translate(4.8710648,5.0000002)"
   id="Body_Körper94"
   style="fill:#47290b;fill-opacity:1"><path
     id="path850"
     transform="matrix(1,0,0,-1,24.819093,30.942162)"
     shaper:pathType="exterior"
     shaper:cutDepth="0.001"
     d="m -22.76,-17.147027 h 1.5 v 2.5 h -1.5 z"
     style="vector-effect:non-scaling-stroke;fill:#47290b;fill-opacity:1"
     inkscape:connector-curvature="0" /></g><path
   id="path853"
   d="M 7.6801436,37.342157 V 50.08918 H 51.700139 V 37.342157 Z m 0.9999905,0.99999 H 17.466418 L 8.6801341,49.08919 Z m 10.0779359,0 V 49.08919 H 9.9718382 Z m 0.999991,0 h 8.786284 L 19.758061,49.08919 Z m 11.077927,0 h 8.786233 V 49.08919 Z m 9.786223,0 8.786285,10.747043 h -8.786285 z m 1.291703,0 h 8.786232 V 49.08919 Z m -12.723769,0.789977 v 9.957066 h -8.140432 z m 0.999991,0 8.140431,9.957066 h -8.140431 z"
   style="vector-effect:non-scaling-stroke;fill:#47290b;fill-opacity:1;stroke-width:0.99999982"
   inkscape:connector-curvature="0" /><path
   id="path884"
   d="M 29.690166,5.0000002 17.471327,20.088999 h 11.718818 v 11.853177 h 22.509994 c 0.008,-0.596048 0.01682,-0.978758 0.699973,-1.000034 l -5.478371,-4.662867 z m -0.500021,2.20648 v 1.7825265 h -1.443477 z m 0.999991,0 1.443476,1.7825265 h -1.443476 z m -3.253238,2.7825172 h 2.253247 V 19.089009 H 19.56784 Z m 3.253238,0 h 2.2533 l 7.369004,9.1000116 h -9.622304 z m 0.643423,10.1000016 h 8.788662 v 10.853135 z m 9.788652,0 8.788713,10.853135 h -8.788713 z m -10.432075,0.794526 8.145342,10.058609 h -8.145342 z"
   style="vector-effect:non-scaling-stroke;fill:#47290b;fill-opacity:1;stroke-width:0.99999982"
   inkscape:connector-curvature="0"
   sodipodi:nodetypes="cccccccccccccccccccccccccccccccccccccc" /><path
   id="path910"
   d="m 16.656545,21.095191 -4.198037,5.184076 -5.4783732,4.662867 c 0.6658164,-0.0149 0.6918944,0.455429 0.7000108,1.000023 H 28.14654 V 21.095191 Z m 0.38561,0.350056 c 0.08452,-0.0025 0.154397,0.06535 0.154409,0.149914 0,0.200023 -0.300034,0.200023 -0.300034,0 1.2e-5,-0.08113 0.06453,-0.147548 0.145625,-0.149914 z m 3.600038,0 c 0.08451,-0.0025 0.154344,0.06537 0.154357,0.149914 -0.0022,0.19782 -0.297826,0.19782 -0.299982,0 1.2e-5,-0.08113 0.06453,-0.147548 0.145625,-0.149914 z m 3.599986,0 c 0.08451,-0.0025 0.154345,0.06537 0.154358,0.149914 -0.0022,0.197818 -0.297823,0.197818 -0.299982,0 1.2e-5,-0.08113 0.06453,-0.147547 0.145624,-0.149914 z m 3.599987,0 c 0.08451,-0.0025 0.154344,0.06537 0.154357,0.149914 0.0023,0.202245 -0.302251,0.202245 -0.299981,0 1.2e-5,-0.08113 0.06453,-0.147547 0.145624,-0.149914 z m -10.495637,0.649935 c 0.01106,0.729122 0.349289,1.371062 1.000039,1.711734 v 0.464674 c -0.677483,0.323606 -0.956652,1.010677 -1.000039,1.72315 z m 0.500021,0 h 1.999981 c -0.01654,0.566181 -0.366785,1.204847 -0.999982,1.211753 -0.652071,-0.01235 -0.958938,-0.64361 -0.999999,-1.211753 z m 2.500002,0 v 3.898056 c -0.0147,-0.72983 -0.349079,-1.377068 -0.999992,-1.721863 v -0.464467 c 0.67747,-0.318803 0.959725,-1.00051 0.999992,-1.711726 z m 4.200001,0 c 0.01094,0.729075 0.349297,1.371093 0.999988,1.711734 v 0.464674 c -0.677477,0.323667 -0.956599,1.010651 -0.999987,1.72315 z m 0.500021,0 h 1.999982 c -0.01654,0.566146 -0.366818,1.204837 -0.999981,1.211753 -0.652115,-0.01233 -0.958933,-0.643587 -1.000001,-1.211753 z m 2.499951,0 v 3.898056 c -0.01471,-0.729774 -0.349051,-1.377146 -0.999992,-1.721863 v -0.464467 c 0.677506,-0.31879 0.959727,-1.000489 0.999992,-1.711726 z m -6.299976,0.299981 h 1.050013 v 1.050013 h -1.050013 z m 1.349994,0 h 1.050014 v 1.050013 h -1.050014 z m -5.849978,0.17787 v 3.420205 c -0.02109,-0.838526 -0.463333,-1.598924 -1.303018,-1.811102 z m 4.499984,1.172125 h 1.050013 v 1.973523 h -1.050013 z m 1.349994,0 h 1.050014 v 1.973523 h -1.050014 z m -7.467656,0.825531 c 0.729323,0.08736 1.089892,0.763241 1.117641,1.447975 h -2.290179 z m 3.717653,0.236213 c 0.652045,0.01226 0.95903,0.643624 1.000042,1.211764 H 17.84655 c 0.01655,-0.56617 0.366811,-1.204859 0.99999,-1.211764 z m 7.200025,0 c 0.652038,0.01229 0.958969,0.643643 0.99998,1.211764 h -1.999982 c 0.01643,-0.566204 0.366844,-1.204882 1.000002,-1.211764 z m -12.604396,1.563315 c 0.08453,-0.0025 0.154373,0.0654 0.154357,0.149965 -0.0022,0.197808 -0.297813,0.197808 -0.299982,0 -1.5e-5,-0.08115 0.06451,-0.147598 0.145625,-0.149965 z m 3.599986,0 c 0.08455,-0.0025 0.154426,0.06538 0.154409,0.149965 0,0.200023 -0.300034,0.200023 -0.300034,0 -1.6e-5,-0.08115 0.06451,-0.147598 0.145625,-0.149965 z m 3.600038,0 c 0.08452,-0.0025 0.154373,0.0654 0.154357,0.149965 -0.0021,0.197832 -0.297838,0.197832 -0.299982,0 -1.6e-5,-0.08115 0.06451,-0.147598 0.145625,-0.149965 z m 3.599986,0 c 0.08453,-0.0025 0.154374,0.0654 0.154358,0.149965 -0.0021,0.197834 -0.29784,0.197834 -0.299982,0 -1.6e-5,-0.08115 0.06451,-0.147598 0.145624,-0.149965 z m 3.599987,0 c 0.08453,-0.0025 0.154373,0.0654 0.154357,0.149965 0.0023,0.202248 -0.302255,0.202248 -0.299981,0 -1.6e-5,-0.08115 0.06451,-0.147598 0.145624,-0.149965 z m -14.695638,0.648436 v 3.923481 c -0.0027,-0.93673 -0.608107,-1.829713 -1.564398,-1.99167 z m 0.600015,0 c 0.01092,0.729136 0.349375,1.37101 0.999989,1.711785 v 0.499969 c -0.677431,0.318767 -0.959754,1.000543 -0.999989,1.711725 z m 0.500021,0 h 1.99998 c -0.01653,0.566202 -0.366765,1.204864 -0.999981,1.211763 -0.652109,-0.01228 -0.958977,-0.643597 -0.999999,-1.211763 z m 2.500001,0 v 3.923481 c -0.01097,-0.729029 -0.349309,-1.371125 -0.999987,-1.711725 V 28.73044 c 0.67743,-0.318913 0.959738,-1.000515 0.999987,-1.711787 z m 0.599964,0 c 0.01106,0.729104 0.349281,1.371083 1.000039,1.711725 v 0.500021 c -0.677554,0.318771 -0.959641,1.00051 -1.000039,1.711725 z m 0.500021,0 h 1.999981 c -0.01653,0.566197 -0.366769,1.204876 -0.999982,1.211763 -0.652082,-0.01229 -0.958939,-0.64363 -0.999999,-1.211763 z m 2.500002,0 v 3.923533 c -0.01094,-0.729054 -0.349277,-1.37116 -0.999988,-1.711777 V 28.73044 c 0.677436,-0.318922 0.959739,-1.00051 0.999988,-1.711787 z m 0.600015,0 c 0.01089,0.729176 0.34935,1.370996 0.999989,1.711785 v 0.499969 c -0.677472,0.318772 -0.959764,1.000511 -0.999989,1.711725 z m 0.499969,0 h 2.000033 c -0.01654,0.566186 -0.366841,1.204876 -1.000031,1.211763 -0.652086,-0.01229 -0.958934,-0.64363 -1.000002,-1.211763 z m 2.500002,0 v 3.923481 c -0.01093,-0.729058 -0.349281,-1.371115 -0.999977,-1.711725 V 28.73044 c 0.677449,-0.318913 0.959756,-1.000496 0.999977,-1.711787 z m 0.600015,0 c 0.01094,0.729057 0.349289,1.371114 0.999988,1.711725 v 0.500021 c -0.677466,0.318779 -0.959735,1.000525 -0.999988,1.711725 z m 0.500021,0 h 1.999982 c -0.01654,0.566168 -0.366802,1.204856 -0.999981,1.211763 -0.652123,-0.01226 -0.958934,-0.643613 -1.000001,-1.211763 z m 2.499951,0 v 3.923533 c -0.01091,-0.729094 -0.34925,-1.37115 -0.999979,-1.711777 V 28.73044 c 0.677463,-0.318908 0.959758,-1.000489 0.999979,-1.711787 z m -16.279004,2.320375 c 0.785747,0.108476 1.340053,0.83093 1.379034,1.603162 l -2.6772007,-5.3e-5 z m 3.979033,0.391397 c 0.652061,0.01227 0.958959,0.643577 0.999981,1.211713 h -1.999971 c 0.01656,-0.566199 0.366787,-1.204815 0.99999,-1.211713 z m 3.599986,0 c 0.652034,0.01225 0.95902,0.643578 1.000042,1.211713 H 17.84655 c 0.01656,-0.566174 0.366819,-1.204808 0.99999,-1.211713 z m 3.600038,0 c 0.652028,0.01228 0.95896,0.643597 0.99998,1.211713 h -2.000033 c 0.01656,-0.566201 0.366864,-1.20483 1.000053,-1.211713 z m 3.599987,0 c 0.652028,0.01228 0.95896,0.643597 0.99998,1.211713 h -1.999982 c 0.01644,-0.566208 0.366852,-1.204831 1.000002,-1.211713 z M 9.8421821,31.295239 c 0.084505,-0.0025 0.1543446,0.06537 0.1543573,0.149913 0.0021,0.202078 -0.302083,0.202078 -0.2999816,0 1.2e-5,-0.08113 0.064529,-0.147547 0.1456243,-0.149913 z m 3.5999869,0 c 0.08451,-0.0025 0.154344,0.06537 0.154357,0.149913 -0.0022,0.197831 -0.297836,0.197831 -0.299982,0 1.3e-5,-0.08113 0.06453,-0.147547 0.145625,-0.149913 z m 3.599986,0 c 0.08452,-0.0025 0.154397,0.06535 0.154409,0.149913 0,0.200023 -0.300034,0.200023 -0.300034,0 1.2e-5,-0.08113 0.06453,-0.147547 0.145625,-0.149913 z m 3.600038,0 c 0.08451,-0.0025 0.154344,0.06537 0.154357,0.149913 -0.0021,0.197843 -0.297849,0.197843 -0.299982,0 1.2e-5,-0.08113 0.06453,-0.147547 0.145625,-0.149913 z m 3.599986,0 c 0.08451,-0.0025 0.154345,0.06537 0.154358,0.149913 -0.0021,0.197841 -0.297846,0.197841 -0.299982,0 1.2e-5,-0.08113 0.06453,-0.147546 0.145624,-0.149913 z m 3.599987,0 c 0.08451,-0.0025 0.154344,0.06537 0.154357,0.149913 0.0022,0.202222 -0.302228,0.202222 -0.299981,0 1.2e-5,-0.08113 0.06453,-0.147546 0.145624,-0.149913 z"
   style="vector-effect:non-scaling-stroke;fill:#47290b;fill-opacity:1;stroke-width:0.99999982"
   inkscape:connector-curvature="0"
   sodipodi:nodetypes="ccccccccccccccccccccccccccccccccccccccccccccccccccccccccccccccccccccccccccccccccccccccccccccccccccccccccccccccccccccccccccccccccccccccccccccccccccccccccccccccccccccccccccccccccccccccccccccccccccccccccccccccccccc" /><text
   id="text1123"
   y="35.797318"
   x="29.75844"
   style="font-style:normal;font-variant:normal;font-weight:normal;font-stretch:normal;font-size:3.28083372px;line-height:1.49999976px;font-family:Arial;-inkscape-font-specification:Arial;letter-spacing:0px;word-spacing:0px;fill:#47290b;fill-opacity:1;stroke:none;stroke-width:0.02645833"
   xml:space="preserve"><tspan
     style="font-style:normal;font-variant:normal;font-weight:bold;font-stretch:normal;font-size:3.28083348px;font-family:Arial;-inkscape-font-specification:'Arial, Bold';font-variant-ligatures:normal;font-variant-caps:normal;font-variant-numeric:normal;font-feature-settings:normal;text-align:center;writing-mode:lr-tb;text-anchor:middle;fill:#47290b;fill-opacity:1;stroke-width:0.02645833"
     y="35.797318"
     x="29.75844"
     id="tspan1121"
     sodipodi:role="line">SCHMELING FACHWERK GMBH</tspan></text>










</g></g><g
     inkscape:groupmode="layer"
     id="layer2"
     inkscape:label="Schrift"
     style="display:inline"
     transform="translate(3.0708225,-0.9554065)"
     sodipodi:insensitive="true"><text
       xml:space="preserve"
       style="font-style:normal;font-variant:normal;font-weight:normal;font-stretch:normal;font-size:35.27777863px;line-height:1.49999976px;font-family:Arial;-inkscape-font-specification:Arial;letter-spacing:0px;word-spacing:0px;fill:#47290b;fill-opacity:1;stroke:none;stroke-width:0.02645833"
       x="58.447018"
       y="35.838394"
       id="text924"><tspan
         sodipodi:role="line"
         id="tspan922"
         x="58.447018"
         y="35.838394"
         style="font-style:normal;font-variant:normal;font-weight:normal;font-stretch:normal;font-size:24.69444656px;font-family:Arial;-inkscape-font-specification:Arial;fill:#47290b;fill-opacity:1;stroke-width:0.02645833">Schmeling Fachwerk GmbH</tspan></text>
</g></svg>